<?xml version="1.0" standalone="no"?>
<!DOCTYPE svg PUBLIC "-//W3C//DTD SVG 20010904//EN"
 "http://www.w3.org/TR/2001/REC-SVG-20010904/DTD/svg10.dtd">
<svg version="1.0" xmlns="http://www.w3.org/2000/svg"
 width="90pt" height="60pt" viewBox="85 60 300 280"
 preserveAspectRatio="xMidYMid meet">

<g transform="translate(0.000000,500.000000) scale(0.100000,-0.100000)"
fill="#ff6e40" stroke="none">
<path d="M1254 4047 c-2 -7 7 -40 21 -75 19 -47 25 -80 25 -137 0 -85 13 -75
-124 -95 -95 -14 -182 -42 -257 -81 l-55 -30 -88 16 c-149 26 -226 18 -226
-21 0 -7 24 -26 53 -42 29 -16 67 -42 85 -56 l31 -27 -36 -47 c-50 -65 -119
-213 -145 -313 -19 -71 -23 -109 -22 -249 0 -152 2 -171 27 -245 66 -197 194
-336 388 -421 55 -25 77 -29 159 -29 82 0 103 4 151 26 94 44 136 90 191 209
72 156 80 170 106 191 l24 18 49 -42 c40 -34 53 -54 70 -107 30 -89 130 -351
186 -487 37 -89 51 -113 66 -113 19 0 19 5 13 73 -8 86 -45 344 -53 372 -5 16
-3 18 8 9 133 -108 303 -234 315 -234 32 0 9 45 -91 175 -58 75 -105 140 -105
144 0 5 14 14 30 21 78 32 183 179 209 290 15 66 13 225 -4 298 -44 185 -165
374 -320 498 -77 63 -213 140 -285 163 -29 9 -41 22 -62 64 -14 28 -46 80 -72
113 -90 120 -243 220 -262 171z m57 -406 l15 -68 -25 6 c-68 17 -136 -29 -163
-110 -8 -24 -18 -44 -24 -46 -5 -1 -17 15 -27 37 -27 58 -54 88 -109 120 l-51
28 39 20 c79 39 221 79 290 81 l41 1 14 -69z m504 -73 c83 -49 226 -188 280
-273 199 -312 176 -650 -54 -797 -25 -15 -48 -28 -52 -28 -5 0 -40 38 -80 85
-65 78 -73 93 -90 163 -25 105 -25 104 24 77 50 -29 109 -32 153 -7 80 44 125
79 130 99 9 36 -15 92 -60 139 -41 42 -45 44 -103 44 -78 0 -117 -26 -159
-103 l-31 -58 -28 108 c-15 59 -30 114 -32 121 -3 6 0 12 6 12 6 0 43 19 82
42 47 28 71 49 76 66 11 47 -39 158 -88 195 -33 24 -100 25 -135 2 -14 -9 -28
-13 -33 -11 -17 11 -21 71 -6 111 8 22 14 55 15 72 l0 33 58 -26 c31 -14 89
-43 127 -66z m-503 -45 c65 -74 62 -180 -6 -248 -37 -37 -64 -31 -130 31 l-59
54 21 23 c12 12 28 40 37 62 34 83 100 120 137 78z m160 -273 c26 -118 52
-228 58 -244 6 -16 9 -31 7 -32 -2 -2 -58 48 -125 112 l-121 115 44 43 c50 51
69 101 64 175 -3 41 -1 51 10 49 10 -2 29 -67 63 -218z m99 193 c6 -16 27 -84
48 -153 21 -69 41 -135 45 -147 6 -19 2 -23 -49 -34 -30 -7 -57 -10 -60 -7 -3
3 -22 81 -44 174 l-38 169 26 12 c41 19 61 15 72 -14z m-777 -60 c56 -116 108
-163 179 -163 30 0 43 -11 124 -102 50 -57 167 -180 261 -275 l170 -171 -30
-29 c-33 -31 -59 -79 -108 -197 -39 -93 -88 -147 -164 -182 -79 -36 -157 -41
-236 -14 -382 127 -541 548 -371 986 30 78 115 224 130 224 4 0 25 -35 45 -77z
m979 29 c17 -19 67 -121 67 -137 -1 -15 -131 -88 -140 -78 -7 7 -60 172 -60
187 0 13 66 46 91 46 14 0 33 -8 42 -18z m-516 -241 c76 -71 155 -146 175
-168 l38 -39 -44 -43 -43 -42 -130 138 c-71 76 -147 157 -168 181 l-38 43 28
29 c16 17 32 30 36 30 4 0 69 -58 146 -129z m470 -267 c24 -93 42 -172 40
-176 -1 -3 -37 32 -80 78 -70 75 -81 91 -98 154 -11 39 -19 76 -16 83 3 11 83
37 102 33 5 -2 29 -79 52 -172z m290 111 c28 -20 63 -77 63 -103 0 -14 -18
-32 -57 -56 -76 -48 -131 -50 -175 -6 -34 34 -33 58 4 119 34 55 119 78 165
46z m-404 -197 c182 -196 457 -522 457 -542 0 -17 -371 300 -540 462 l-115
110 40 41 c21 23 42 41 46 41 4 0 54 -51 112 -112z m247 -558 c12 -77 20 -144
18 -150 -3 -11 -138 341 -138 361 0 5 22 -8 49 -31 l49 -41 22 -139z"/>
<path d="M807 3180 c-62 -54 -130 -223 -112 -279 7 -24 88 -56 158 -64 43 -4
53 -1 81 23 17 16 42 51 55 78 30 64 24 100 -28 173 -80 111 -97 119 -154 69z
m116 -95 c38 -57 47 -79 41 -97 -10 -33 -53 -98 -68 -104 -21 -8 -138 14 -153
29 -11 11 -9 25 11 84 37 110 72 163 105 163 9 0 38 -34 64 -75z"/>
<path d="M992 2728 c-59 -55 -110 -110 -115 -121 -16 -43 47 -117 126 -146
120 -45 234 54 236 207 1 64 -17 111 -54 140 -52 41 -75 32 -193 -80z m165 47
c49 -35 54 -150 10 -217 -52 -78 -131 -86 -205 -22 -39 33 -56 74 -32 74 6 0
51 41 99 90 49 50 93 90 98 90 5 0 18 -7 30 -15z"/>
<path d="M2560 3435 c-63 -152 -116 -280 -118 -286 -2 -5 10 -9 26 -9 28 0 32
5 65 88 l35 87 129 3 128 3 35 -87 c35 -88 44 -98 78 -92 16 3 6 34 -98 283
-104 250 -119 280 -141 283 -23 2 -31 -14 -139 -273z m197 63 c29 -72 51 -133
49 -135 -2 -2 -53 -2 -113 -1 l-110 3 55 133 c30 72 57 132 61 132 3 0 30 -59
58 -132z"/>
<path d="M3010 3426 l0 -286 25 0 25 0 0 105 0 105 88 0 87 -1 65 -104 c61
-98 67 -105 97 -105 l33 0 -69 108 -68 107 35 20 c114 64 116 229 4 305 -33
23 -46 25 -179 28 l-143 3 0 -285z m287 214 c60 -36 79 -109 47 -176 -25 -53
-57 -64 -179 -64 l-105 0 0 123 c0 68 3 127 7 130 3 4 49 7 102 7 78 0 102 -4
128 -20z"/>
<path d="M3440 3685 l0 -25 100 0 100 0 0 -260 0 -260 30 0 30 0 0 260 0 260
100 0 100 0 0 25 0 25 -230 0 -230 0 0 -25z"/>
<path d="M2625 2886 c-104 -49 -160 -143 -159 -266 1 -88 24 -146 82 -205 77
-78 188 -98 289 -51 l52 24 16 -24 c11 -17 25 -24 46 -24 l31 0 -31 36 c-18
20 -30 39 -29 42 64 120 71 143 66 220 -12 206 -192 329 -363 248z m184 -45
c115 -59 161 -213 100 -333 -22 -43 -29 -46 -54 -18 -17 19 -65 28 -65 13 0
-4 14 -21 31 -39 l31 -32 -28 -19 c-21 -13 -47 -18 -100 -18 -65 0 -76 3 -111
31 -139 110 -118 351 37 418 48 21 114 20 159 -3z"/>
<path d="M3060 2732 c0 -202 11 -260 62 -318 47 -54 96 -74 176 -74 88 0 144
28 188 93 42 61 54 135 54 325 l0 152 -30 0 -30 0 0 -165 c0 -191 -11 -254
-51 -300 -39 -44 -77 -58 -147 -53 -73 5 -112 31 -143 96 -21 43 -24 64 -27
235 l-4 187 -24 0 -24 0 0 -178z"/>
<path d="M3640 2625 l0 -285 25 0 25 0 0 285 0 285 -25 0 -25 0 0 -285z"/>
<path d="M3770 2885 l0 -25 185 0 c102 0 185 -2 185 -5 0 -2 -85 -109 -190
-237 -120 -147 -190 -241 -190 -255 l0 -23 225 0 225 0 0 25 0 25 -190 0 -191
0 191 236 c127 158 190 244 190 260 l0 24 -220 0 -220 0 0 -25z"/>
</g>
</svg>
